HIERARCHY
ROOT Hips
{
	OFFSET 0.000000 0.000000 0.000000
	CHANNELS 6 Xposition Yposition Zposition Zrotation Yrotation Xrotation 
	JOINT LHipJoint
	{
		OFFSET 0.000000 0.000000 0.000000
		CHANNELS 3 Zrotation Yrotation Xrotation
		JOINT LeftUpLeg
		{
			OFFSET 1.363060 -1.794630 0.839290
			CHANNELS 3 Zrotation Yrotation Xrotation
			JOINT LeftLeg
			{
				OFFSET 2.448110 -6.726130 0.000000
				CHANNELS 3 Zrotation Yrotation Xrotation
				JOINT LeftFoot
				{
					OFFSET 2.562200 -7.039590 0.000000
					CHANNELS 3 Zrotation Yrotation Xrotation
					JOINT LeftToeBase
					{
						OFFSET 0.157640 -0.433110 2.322550
						CHANNELS 3 Zrotation Yrotation Xrotation
						End Site
						{
							OFFSET 0.000000 0.000000 0.000000
						}
					}
				}
			}
		}
	}
	JOINT RHipJoint
	{
		OFFSET 0.000000 0.000000 0.000000
		CHANNELS 3 Zrotation Yrotation Xrotation
		JOINT RightUpLeg
		{
			OFFSET -1.305520 -1.794630 0.839290
			CHANNELS 3 Zrotation Yrotation Xrotation
			JOINT RightLeg
			{
				OFFSET -2.542530 -6.985550 0.000000
				CHANNELS 3 Zrotation Yrotation Xrotation
				JOINT RightFoot
				{
					OFFSET -2.568260 -7.056230 0.000000
					CHANNELS 3 Zrotation Yrotation Xrotation
					JOINT RightToeBase
					{
						OFFSET -0.164730 -0.452590 2.363150
						CHANNELS 3 Zrotation Yrotation Xrotation
						End Site
						{
							OFFSET 0.000000 0.000000 0.000000
						}
					}
				}
			}
		}
	}
	JOINT LowerBack
	{
		OFFSET 0.000000 0.000000 0.000000
		CHANNELS 3 Zrotation Yrotation Xrotation
		JOINT Spine
		{
			OFFSET 0.028270 2.035590 -0.193380
			CHANNELS 3 Zrotation Yrotation Xrotation
			JOINT Spine1
			{
				OFFSET 0.056720 2.048850 -0.042750
				CHANNELS 3 Zrotation Yrotation Xrotation
				JOINT Neck
				{
					OFFSET 0.000000 0.000000 0.000000
					CHANNELS 3 Zrotation Yrotation Xrotation
					JOINT Neck1
					{
						OFFSET -0.054170 1.746240 0.172020
						CHANNELS 3 Zrotation Yrotation Xrotation
						JOINT Head
						{
							OFFSET 0.104070 1.761360 -0.123970
							CHANNELS 3 Zrotation Yrotation Xrotation
							End Site
							{
								OFFSET 0.000000 0.000000 0.000000
							}
						}
					}
				}
				JOINT LeftShoulder
				{
					OFFSET 0.000000 0.000000 0.000000
					CHANNELS 3 Zrotation Yrotation Xrotation
					JOINT LeftArm
					{
						OFFSET 3.362410 1.200890 -0.311210
						CHANNELS 3 Zrotation Yrotation Xrotation
						JOINT LeftForeArm
						{
							OFFSET 4.983000 -0.000000 -0.000000
							CHANNELS 3 Zrotation Yrotation Xrotation
							JOINT LeftHand
							{
								OFFSET 3.483560 -0.000000 -0.000000
								CHANNELS 3 Zrotation Yrotation Xrotation
								JOINT LeftFingerBase
								{
									OFFSET 0.000000 0.000000 0.000000
									CHANNELS 3 Zrotation Yrotation Xrotation
									JOINT LeftHandIndex1
									{
										OFFSET 0.715260 -0.000000 -0.000000
										CHANNELS 3 Zrotation Yrotation Xrotation
										End Site
										{
											OFFSET 0.000000 0.000000 0.000000
										}
									}
								}
								JOINT LThumb
								{
									OFFSET 0.000000 0.000000 0.000000
									CHANNELS 3 Zrotation Yrotation Xrotation
									End Site
									{
										OFFSET 0.000000 0.000000 0.000000
									}
								}
							}
						}
					}
				}
				JOINT RightShoulder
				{
					OFFSET 0.000000 0.000000 0.000000
					CHANNELS 3 Zrotation Yrotation Xrotation
					JOINT RightArm
					{
						OFFSET -3.136600 1.374050 -0.404650
						CHANNELS 3 Zrotation Yrotation Xrotation
						JOINT RightForeArm
						{
							OFFSET -5.241900 -0.000000 -0.000000
							CHANNELS 3 Zrotation Yrotation Xrotation
							JOINT RightHand
							{
								OFFSET -3.444170 -0.000000 -0.000000
								CHANNELS 3 Zrotation Yrotation Xrotation
								JOINT RightFingerBase
								{
									OFFSET 0.000000 0.000000 0.000000
									CHANNELS 3 Zrotation Yrotation Xrotation
									JOINT RightHandIndex1
									{
										OFFSET -0.622530 -0.000000 -0.000000
										CHANNELS 3 Zrotation Yrotation Xrotation
										End Site
										{
											OFFSET 0.000000 0.000000 0.000000
										}
									}
								}
								JOINT RThumb
								{
									OFFSET 0.000000 0.000000 0.000000
									CHANNELS 3 Zrotation Yrotation Xrotation
									End Site
									{
										OFFSET 0.000000 0.000000 0.000000
									}
								}
							}
						}
					}
				}
			}
		}
	}
}
MOTION
Frames: 11
Frame Time: 0.008333
0.000000 0.000000 0.000000 72.000318 -62.562976 8.608748 142.423769 -85.087747 -130.174655 35.286624 25.137860 -179.065523 -3.615361 52.859396 33.074156 -156.271434 68.191202 -100.605602 0.000000 0.000000 0.000000 93.553144 -56.330312 -155.957438 142.760698 55.190593 -109.032551 96.053923 -37.353520 34.337707 41.558156 68.684126 -42.998337 0.000000 0.000000 0.000000 -109.601103 38.242295 115.295521 33.197370 -7.099203 92.104948 166.830566 86.663428 116.658961 -2.251011 -25.548142 88.819815 166.989564 44.432268 -146.492924 0.000000 0.000000 0.000000 -45.648279 -15.906601 -165.096633 -155.325345 -59.093212 145.008284 -51.790396 26.163608 147.217598 167.414822 44.749209 -31.042599 -175.069957 -45.255348 0.000000 0.000000 0.000000 0.000000 0.000000 0.000000 0.000000 128.195549 -72.587214 23.806327 -95.919403 49.004929 45.915042 53.843576 -35.412946 -12.333903 -117.329958 -29.598071 3.533948 -121.011667 -25.554918 -0.000000 0.000000 0.000000 0.000000 0.000000 0.000000 0.000000 
0.000000 0.000000 0.000000 72.000318 -62.562976 8.608748 142.423769 -85.087747 -130.174655 35.286624 25.137860 -179.065523 -3.615361 52.859396 33.074156 -156.271434 68.191202 -100.605602 0.000000 0.000000 0.000000 93.553144 -56.330312 -155.957438 142.760698 55.190593 -109.032551 96.053923 -37.353520 34.337707 41.558156 68.684126 -42.998337 0.000000 0.000000 0.000000 -109.601103 38.242295 115.295521 33.197370 -7.099203 92.104948 166.830566 86.663428 116.658961 -2.251011 -25.548142 88.819815 166.989564 44.432268 -146.492924 0.000000 0.000000 0.000000 -45.648279 -15.906601 -165.096633 -155.325345 -59.093212 145.008284 -51.790396 26.163608 147.217598 167.414822 44.749209 -31.042599 -175.069957 -45.255348 0.000000 0.000000 0.000000 0.000000 0.000000 0.000000 0.000000 128.195549 -72.587214 23.806327 -95.919403 49.004929 45.915042 53.843576 -35.412946 -12.333903 -117.329958 -29.598071 3.533948 -121.011667 -25.554918 -0.000000 0.000000 0.000000 0.000000 0.000000 0.000000 0.000000 
0.000000 0.000000 0.000000 72.000318 -62.562976 8.608748 142.423769 -85.087747 -130.174655 35.286624 25.137860 -179.065523 -3.615361 52.859396 33.074156 -156.271434 68.191202 -100.605602 0.000000 0.000000 0.000000 93.553144 -56.330312 -155.957438 142.760698 55.190593 -109.032551 96.053923 -37.353520 34.337707 41.558156 68.684126 -42.998337 0.000000 0.000000 0.000000 -109.601103 38.242295 115.295521 33.197370 -7.099203 92.104948 166.830566 86.663428 116.658961 -2.251011 -25.548142 88.819815 166.989564 44.432268 -146.492924 0.000000 0.000000 0.000000 -45.648279 -15.906601 -165.096633 -155.325345 -59.093212 145.008284 -51.790396 26.163608 147.217598 167.414822 44.749209 -31.042599 -175.069957 -45.255348 0.000000 0.000000 0.000000 0.000000 0.000000 0.000000 0.000000 128.195549 -72.587214 23.806327 -95.919403 49.004929 45.915042 53.843576 -35.412946 -12.333903 -117.329958 -29.598071 3.533948 -121.011667 -25.554918 -0.000000 0.000000 0.000000 0.000000 0.000000 0.000000 0.000000 
0.000000 0.000000 0.000000 72.000318 -62.562976 8.608748 142.423769 -85.087747 -130.174655 35.286624 25.137860 -179.065523 -3.615361 52.859396 33.074156 -156.271434 68.191202 -100.605602 0.000000 0.000000 0.000000 93.553144 -56.330312 -155.957438 142.760698 55.190593 -109.032551 96.053923 -37.353520 34.337707 41.558156 68.684126 -42.998337 0.000000 0.000000 0.000000 -109.601103 38.242295 115.295521 33.197370 -7.099203 92.104948 166.830566 86.663428 116.658961 -2.251011 -25.548142 88.819815 166.989564 44.432268 -146.492924 0.000000 0.000000 0.000000 -45.648279 -15.906601 -165.096633 -155.325345 -59.093212 145.008284 -51.790396 26.163608 147.217598 167.414822 44.749209 -31.042599 -175.069957 -45.255348 0.000000 0.000000 0.000000 0.000000 0.000000 0.000000 0.000000 128.195549 -72.587214 23.806327 -95.919403 49.004929 45.915042 53.843576 -35.412946 -12.333903 -117.329958 -29.598071 3.533948 -121.011667 -25.554918 -0.000000 0.000000 0.000000 0.000000 0.000000 0.000000 0.000000 
2.061385 64.833615 -99.144810 62.514827 -78.291518 -121.957858 -13.461960 82.763054 -165.391125 -70.949725 71.206388 82.411276 -154.375791 -52.704373 146.351351 57.242568 -28.300435 -96.758005 0.582500 4.887000 13.586600 -135.152559 79.147960 12.005244 111.168531 59.070950 -142.121335 87.812529 -89.738636 132.636616 -104.068965 -19.086034 117.704028 -0.001500 0.249900 -0.686700 -69.825669 -35.903401 178.674596 -83.976257 29.362657 66.537495 -165.311530 -40.352195 82.289375 46.169467 -13.353335 20.535415 -132.600745 -22.935040 -146.370447 0.004600 1.429600 -0.807000 -74.193806 -53.824545 -33.169224 -42.570710 -73.343180 -26.499877 29.536315 -49.875524 -104.082904 -62.700117 0.291092 -46.684740 -14.130512 47.323080 3.001100 -7.125000 0.000000 0.000000 5.720600 35.372900 -1.358500 -125.178003 55.758883 -116.042765 -144.847475 -79.819886 121.074735 38.671747 -49.761520 -10.931972 111.070003 69.518480 -138.769759 109.550164 45.088730 160.746400 7.125000 0.000000 0.000000 -8.091000 -0.915800 -8.041600 
2.079129 64.992959 -97.177361 -48.740129 30.192466 14.413160 169.222847 40.850493 125.825033 101.831218 -85.855150 112.295994 114.057923 -72.011627 -121.632879 175.546037 -50.223148 25.549807 0.047400 -1.405000 -3.864000 -2.969692 -30.867591 -1.915058 -162.344487 -1.757692 -49.201889 24.527211 15.483055 147.379565 2.843983 35.756091 -147.210818 -0.065600 1.652000 -4.544900 53.217700 63.641871 169.080894 98.919362 64.197742 149.018683 -91.614973 80.139076 -166.932758 -64.218897 -3.194432 -68.415507 36.800465 22.568535 167.658670 -0.145800 1.388400 -0.802700 129.566947 -60.555193 -21.789383 -103.092981 -21.527143 -98.249305 -114.092864 25.156279 71.516292 21.824602 75.460761 -35.130607 98.040630 39.392058 3.259100 -7.125000 0.000000 0.000000 5.282000 35.933400 -1.181200 89.888680 22.438540 58.567708 -100.504480 37.067139 132.446534 112.054416 -62.211197 -45.114927 30.649407 -13.043787 -10.032764 -3.488501 -5.836323 -15.967800 7.125000 0.000000 0.000000 -9.157900 -6.221600 -8.219700 
2.091654 65.191618 -95.237745 107.147838 87.696525 -172.303091 160.586210 -18.216477 -145.153918 102.266025 -78.935658 -45.582936 -79.838772 -47.210429 -38.509709 -78.452808 89.690225 58.392507 0.295900 -3.497900 -9.668200 -90.476973 73.188000 50.470844 39.041573 -61.744957 -147.159594 -134.380186 -56.361811 -123.522208 -94.145288 -26.623935 -79.449496 -0.115000 2.186400 -6.021000 -28.104409 -56.888253 65.721291 29.550312 -71.337715 12.106134 29.963684 -36.568933 126.668455 -149.863328 -46.423618 -19.672592 -116.259081 11.450461 105.716358 -0.057200 1.427300 -0.865000 -78.433184 -53.012566 -16.258622 116.551627 78.698330 -98.138355 95.396266 15.738197 69.444847 -36.836228 -19.756825 -37.721488 -8.978382 10.123628 3.151401 -7.125000 0.000000 0.000000 5.172100 35.756800 -1.178800 153.366040 -63.773935 -23.472184 -174.082140 -28.135532 -57.372475 101.801985 -49.880629 -78.962301 -81.628200 -2.829190 -25.043609 -129.467501 25.415990 -15.383200 7.125000 0.000000 0.000000 -8.630100 -6.663900 -7.659900 
2.094437 65.278248 -93.303696 145.554554 3.769308 -48.696200 10.771398 -75.344958 -100.216315 -72.052607 52.979922 121.684165 134.482320 42.690203 -132.305566 -31.905224 -88.391334 4.874171 0.291500 -3.471700 -9.594900 176.765765 -84.288191 -21.662453 -18.164308 -63.985685 23.325000 49.348388 16.047679 59.983722 -93.578193 88.364273 -93.861153 -0.116800 2.203700 -6.069000 -56.640912 -56.699054 -147.612657 -38.908285 -46.389852 100.026406 -176.798874 59.007220 -104.503582 19.027167 -19.480894 -102.459572 -15.046737 55.888436 -171.909591 0.053900 1.457700 -1.277700 130.395962 89.655014 -4.854801 -117.728123 -56.878023 30.568182 130.546590 13.160805 -146.780613 -107.062219 -3.603965 -78.483832 153.010291 79.136260 -176.331300 -7.125000 0.000000 0.000000 4.945400 36.770100 -1.004100 167.877745 -39.490985 135.655547 -152.120463 84.357183 -61.866848 -70.054517 -40.186736 -15.046815 55.341652 42.566549 18.931862 2.889419 76.339647 -17.079498 7.125000 0.000000 0.000000 -6.653100 -2.722700 -6.373200 
2.104179 65.313387 -91.358166 -60.684949 26.976746 21.505018 -69.695750 -5.749073 54.951360 -52.660717 -30.495402 -4.144841 -165.966797 -72.147333 -84.355519 119.327131 -65.262058 -18.850911 0.148500 -2.483100 -6.842700 -15.241575 -79.217999 115.032593 -15.517394 44.393265 128.521253 97.453057 15.607916 64.321436 -139.087417 84.499942 171.502676 -0.118200 2.216300 -6.103700 142.915125 56.770990 -97.205253 -86.597066 30.739750 64.532061 -109.109176 69.715058 170.901482 -133.057018 72.223058 154.735516 -78.774119 -79.914536 -45.071457 0.172200 1.530600 -1.721800 8.253458 83.253554 69.992562 94.963357 25.886507 171.215184 -123.502959 9.099347 118.821811 68.544813 25.457693 3.993359 118.662400 -22.574219 3.938900 -7.125000 0.000000 0.000000 5.049000 37.249700 -0.965900 91.156903 78.478301 176.692849 20.637680 -50.941387 -13.400510 -103.445379 77.771912 141.621198 95.759875 8.957985 17.136119 52.473128 35.549859 -17.675501 7.125000 0.000000 0.000000 -5.402500 -0.724600 -5.357700 
2.103483 65.330435 -89.402894 55.722615 48.127749 88.364420 168.019496 -1.556206 107.951514 -59.767074 30.317596 -38.120467 -33.490550 71.496073 22.910682 -30.928169 -76.528827 -58.013599 0.001300 0.237200 0.651600 -44.775706 -83.881508 12.667794 -63.439006 39.874620 80.671100 -74.093503 -56.125339 17.435286 14.792988 15.895031 48.869228 -0.145100 2.455200 -6.765400 167.210252 10.985273 -51.951755 76.295690 32.388998 84.974478 -9.783045 -40.344244 0.093195 106.326541 14.016932 159.977817 -153.254193 45.552139 -94.432328 0.253600 1.586800 -1.939500 -68.213526 -46.942606 51.847064 -66.166177 -87.729770 -126.333124 -32.565421 -23.033731 -69.643713 -34.451073 7.862882 -1.176327 20.051820 -6.446522 4.078100 -7.125000 0.000000 0.000000 5.179800 37.475700 -0.962300 139.610136 25.700801 -136.802856 29.600865 40.287489 -0.813404 82.073847 38.030059 -21.287758 -52.029553 37.955055 4.919450 -87.472708 68.451029 -17.759200 7.125000 0.000000 0.000000 -5.401900 -0.601200 -5.369000 
2.114964 65.303298 -87.459799 -4.943570 -43.995922 -101.260815 -148.055512 18.110811 152.200037 -150.731616 -33.191741 -115.691427 -115.040234 22.259793 -64.813038 -163.874820 69.335507 -97.401152 0.000100 -0.058300 -0.160100 -11.413800 -24.996903 163.675558 -170.447301 40.155131 77.089038 25.469812 82.298151 14.347596 -154.569596 -89.969555 -158.407890 -0.259300 3.276100 -9.048400 21.112588 -62.198124 -35.604184 -32.372606 -73.257599 -78.540248 30.317600 -18.080293 -173.811730 164.610280 20.369772 29.286357 -40.962288 85.736308 -91.785809 0.229000 1.507900 -1.819800 -171.505229 2.845660 71.803574 118.473211 84.622138 151.999151 -83.914186 63.954421 27.136601 137.194334 -46.044579 147.999136 -90.087302 -59.907835 3.869300 -7.125000 0.000000 0.000000 4.864200 37.165900 -0.940300 -100.631144 78.653511 103.586404 155.248130 -56.268115 55.097596 85.037061 -0.347612 -16.948769 7.594183 -7.459208 4.629212 -41.472132 26.105015 -17.862600 7.125000 0.000000 0.000000 -5.068400 -0.126100 -5.077100 
